<?xml version="1.0" standalone="no"?>
<!DOCTYPE svg PUBLIC "-//W3C//DTD SVG 20010904//EN"
 "http://www.w3.org/TR/2001/REC-SVG-20010904/DTD/svg10.dtd">
<svg version="1.0" xmlns="http://www.w3.org/2000/svg"
 width="781.000000pt" height="781.000000pt" viewBox="0 0 781.000000 781.000000"
 preserveAspectRatio="xMidYMid meet">
<metadata>
Created by potrace 1.14, written by Peter Selinger 2001-2017
</metadata>
<g transform="translate(0.000000,781.000000) scale(0.100000,-0.100000)"
fill="#000000" stroke="none">
<path d="M3775 7768 c-22 -5 -48 -7 -58 -4 -23 6 -274 -18 -392 -38 -49 -8
-137 -26 -195 -39 -58 -14 -132 -31 -165 -37 -33 -7 -62 -15 -65 -19 -9 -11
-70 -30 -64 -20 3 6 -11 3 -33 -6 -21 -9 -91 -34 -156 -56 -65 -22 -146 -53
-181 -69 -35 -17 -67 -30 -71 -30 -25 0 -276 -126 -268 -134 4 -3 -1 -6 -10
-6 -22 0 -120 -50 -130 -67 -4 -7 -17 -13 -27 -13 -11 0 -20 -5 -20 -10 0 -6
-3 -9 -7 -8 -5 2 -33 -12 -63 -29 -30 -18 -50 -33 -45 -33 6 0 -10 -9 -34 -20
-50 -23 -103 -65 -93 -74 3 -4 -1 -4 -11 0 -10 3 -17 1 -17 -5 0 -6 -5 -11
-11 -11 -6 0 -17 -7 -26 -15 -8 -9 -41 -34 -74 -55 -32 -22 -71 -52 -86 -66
-15 -15 -38 -33 -51 -41 -12 -9 -22 -20 -22 -27 -1 -6 -13 -20 -27 -31 -15
-11 -41 -34 -60 -52 -18 -17 -33 -28 -33 -25 0 4 -14 -8 -30 -27 -17 -18 -27
-37 -24 -43 4 -6 2 -8 -4 -4 -13 8 -109 -78 -118 -106 -3 -11 -8 -17 -11 -15
-6 6 -15 -3 -111 -110 -39 -44 -72 -86 -72 -92 0 -6 -9 -16 -20 -23 -11 -7
-39 -40 -62 -73 -23 -33 -71 -96 -106 -140 -36 -43 -73 -97 -83 -120 -10 -22
-19 -35 -19 -30 0 6 -6 -1 -13 -15 -43 -83 -92 -166 -101 -172 -7 -5 -7 -8 -1
-8 6 0 5 -4 -2 -8 -11 -7 -124 -234 -182 -367 -69 -155 -145 -373 -167 -480
-8 -38 -26 -115 -39 -171 -128 -519 -103 -1361 55 -1889 12 -38 25 -79 30 -90
5 -11 17 -45 26 -75 20 -67 81 -226 99 -260 8 -14 30 -63 50 -110 20 -47 42
-92 50 -100 7 -8 16 -25 19 -37 4 -12 29 -59 56 -105 27 -46 57 -96 66 -113
30 -53 122 -189 143 -212 12 -12 21 -25 21 -29 0 -20 222 -290 296 -361 19
-18 31 -33 28 -33 -3 0 1 -6 8 -14 7 -7 36 -37 64 -67 28 -30 79 -79 114 -109
35 -30 91 -82 125 -115 56 -55 178 -154 239 -194 172 -114 285 -188 301 -198
258 -153 375 -210 655 -320 154 -60 172 -66 340 -112 298 -81 566 -125 870
-140 197 -10 561 6 593 26 5 3 30 7 55 9 26 2 54 4 62 5 29 2 225 40 265 51
22 6 50 12 62 13 12 2 37 8 55 14 18 6 47 13 63 15 17 3 68 17 115 32 47 14
105 32 130 39 43 12 65 21 137 51 17 8 36 14 43 14 6 0 8 5 4 12 -4 6 -3 8 3
5 6 -4 48 9 94 28 46 19 85 35 87 35 2 0 1 4 -2 9 -3 5 10 12 30 16 20 3 55
18 77 32 22 14 54 32 71 40 52 23 100 54 114 71 8 10 12 11 12 3 0 -12 57 22
72 44 4 5 8 7 8 2 0 -4 11 0 25 9 14 9 22 20 19 25 -3 5 2 9 11 9 10 0 37 14
62 30 24 17 46 30 48 30 4 0 29 19 59 45 6 6 23 16 38 24 15 8 25 18 22 23 -3
4 2 8 10 8 9 0 35 15 59 32 24 18 53 39 63 46 10 7 14 10 7 7 -6 -3 -14 -1
-17 4 -4 5 5 8 19 6 14 -1 23 0 20 3 -3 3 4 12 16 20 11 8 18 20 16 26 -3 7
-2 18 3 25 5 10 9 9 13 -4 5 -10 3 -14 -5 -9 -7 4 -8 3 -4 -5 9 -14 36 3 36
23 0 6 -5 4 -11 -4 -9 -13 -10 -13 -6 0 2 8 11 14 19 12 8 -1 21 9 28 23 7 13
17 22 22 19 4 -3 15 2 24 10 8 9 12 16 7 16 -4 0 4 8 19 18 42 27 100 100 92
113 -4 7 -3 9 4 5 6 -3 14 -1 17 5 4 5 13 8 21 5 8 -3 14 1 14 9 0 8 -6 12
-14 9 -8 -3 -17 -1 -20 4 -3 5 5 8 19 7 13 -2 32 4 42 12 10 8 14 12 8 10 -5
-3 -11 7 -12 21 -1 22 1 23 8 9 12 -21 31 -23 23 -2 -5 11 -2 14 12 9 11 -4
16 -4 12 1 -4 4 6 20 23 36 17 16 28 33 24 39 -3 6 0 7 9 4 11 -4 21 5 32 30
10 19 21 33 25 30 4 -2 10 5 14 16 4 11 11 17 17 14 6 -4 8 -2 5 3 -4 6 5 23
19 38 15 16 27 35 28 43 1 7 7 17 12 20 5 4 23 25 40 48 23 29 31 48 28 70 -2
16 -1 21 2 10 5 -16 10 -13 40 20 18 22 32 45 29 52 -3 7 0 10 5 7 6 -3 14 4
19 17 6 13 23 43 40 67 23 34 27 48 19 58 -6 8 -8 16 -4 20 3 3 6 1 6 -6 0 -9
3 -9 13 1 23 23 78 120 65 113 -7 -4 -6 -1 3 7 13 11 29 39 33 58 1 3 10 17
20 32 9 15 19 35 21 45 2 10 4 20 6 23 1 3 3 12 3 20 1 8 7 14 13 13 6 -1 9 7
7 20 -2 12 -1 16 2 9 6 -13 54 89 54 115 0 6 6 18 13 25 13 14 60 142 60 165
0 7 5 13 10 13 5 0 7 16 3 38 -3 21 -2 29 2 18 6 -14 17 9 45 90 20 60 42 134
48 164 6 30 18 75 26 100 8 25 18 65 23 90 4 25 11 54 15 65 6 17 5 18 -5 5
-10 -12 -11 -12 -4 5 4 11 8 36 9 57 0 30 2 34 14 25 12 -10 13 -7 9 16 -3 15
-1 27 4 27 5 0 6 10 3 21 -4 12 -3 19 2 16 5 -3 9 2 9 11 0 9 6 55 12 102 20
140 23 177 26 360 3 109 1 158 -4 130 l-8 -45 5 50 c16 163 1 398 -38 615 -11
63 -23 134 -26 157 -3 27 -9 40 -16 36 -5 -3 -7 -2 -4 4 12 19 -60 286 -74
277 -5 -3 -6 2 -3 10 5 12 -40 139 -67 189 -5 10 -7 22 -4 27 4 6 1 10 -5 10
-6 0 -9 4 -6 9 3 5 -1 22 -9 37 -8 16 -15 34 -15 40 0 5 -11 32 -25 60 -15 27
-24 41 -21 32 3 -10 1 -20 -4 -23 -5 -3 -7 11 -4 30 2 20 0 35 -6 35 -5 0 -10
6 -10 14 0 8 -13 40 -30 71 -16 31 -27 62 -23 68 3 7 3 9 -2 5 -4 -4 -21 21
-38 57 -16 36 -34 62 -40 58 -6 -4 -7 -1 -3 6 5 7 1 20 -8 29 -8 10 -22 35
-31 55 -9 21 -19 36 -23 33 -5 -3 -17 15 -27 40 -10 24 -24 49 -31 55 -7 6
-10 18 -7 26 4 10 2 14 -4 10 -6 -4 -20 9 -32 28 -11 19 -25 35 -31 35 -7 0
-10 6 -8 12 9 26 -102 174 -115 155 -6 -9 -7 -8 -4 3 5 17 -31 73 -42 65 -5
-2 -17 5 -27 18 l-19 22 23 -19 c39 -34 23 0 -18 38 -22 20 -37 36 -34 36 3 0
-1 6 -8 14 -7 8 -31 35 -52 60 -22 25 -44 46 -49 46 -5 0 -4 -7 3 -15 8 -10 9
-15 2 -15 -7 0 -15 13 -19 29 -10 37 -70 104 -85 95 -6 -4 -8 -3 -5 3 8 12
-47 66 -57 56 -4 -4 -4 1 0 12 6 15 4 17 -10 12 -9 -4 -15 -3 -12 2 8 12 -63
83 -75 75 -5 -3 -9 -1 -9 5 0 14 -45 61 -59 61 -10 0 -15 13 -12 33 0 4 -2 6
-6 6 -20 -3 -34 2 -28 11 3 6 0 10 -8 10 -8 0 -18 7 -21 16 -3 9 -11 12 -18 8
-8 -5 -9 -2 -4 12 4 10 4 15 0 11 -4 -4 -13 1 -21 11 -8 9 -12 11 -8 5 4 -9 1
-11 -9 -7 -9 3 -14 10 -11 14 3 4 -2 13 -10 20 -8 7 -15 10 -15 6 0 -3 -12 4
-26 16 -14 13 -31 23 -37 24 -34 3 -38 5 -32 13 3 6 -5 15 -17 22 -13 7 -26
17 -30 23 -4 6 -13 11 -20 11 -7 1 -12 6 -11 13 2 6 -4 9 -12 6 -8 -4 -15 -1
-15 6 0 7 -7 10 -14 7 -11 -4 -13 -1 -9 10 5 12 2 15 -10 10 -9 -3 -17 -3 -17
2 0 5 -24 20 -52 35 -29 14 -49 26 -44 26 13 0 -76 56 -103 65 -11 3 -21 11
-21 16 0 5 -3 8 -7 7 -5 -1 -34 10 -65 25 -31 15 -62 27 -67 27 -6 0 -11 5
-11 10 0 6 -6 10 -12 8 -7 -1 -39 12 -70 30 -32 18 -70 35 -84 36 -14 2 -29 8
-32 14 -4 5 -61 29 -127 51 -66 23 -129 45 -140 51 -11 5 -40 15 -65 21 -25 7
-50 17 -57 22 -7 5 -17 6 -22 2 -6 -3 -24 1 -41 10 -63 33 -396 99 -655 131
-66 8 -196 17 -290 19 -93 3 -179 7 -190 9 -11 2 -38 -1 -60 -6z m525 -328
c452 -42 839 -153 1238 -354 62 -31 117 -54 122 -51 5 3 12 0 16 -6 4 -8 3 -9
-4 -5 -7 4 -12 5 -12 2 0 -11 61 -37 72 -30 6 4 8 3 5 -3 -4 -6 16 -25 46 -43
28 -18 64 -41 80 -52 15 -10 33 -16 39 -12 7 4 8 3 4 -4 -4 -7 -2 -12 5 -12 7
0 26 -15 43 -33 45 -49 91 -78 113 -71 12 4 14 3 5 -3 -9 -7 -4 -15 20 -33 17
-13 60 -47 95 -77 35 -30 68 -51 73 -48 6 3 7 -1 4 -10 -5 -11 -2 -14 12 -8
11 4 15 3 11 -4 -8 -13 80 -96 93 -88 5 3 7 0 5 -7 -3 -8 39 -57 101 -118 58
-58 115 -117 126 -133 11 -15 24 -25 29 -21 5 3 8 2 7 -3 -4 -13 34 -63 43
-57 5 3 8 0 7 -6 -2 -7 5 -14 15 -15 11 -2 22 -7 25 -11 4 -4 -1 -4 -11 -1
-13 5 -17 3 -14 -5 2 -7 11 -12 20 -12 9 1 14 -2 12 -7 -3 -4 6 -25 20 -46 14
-21 43 -66 66 -101 22 -34 45 -59 50 -56 5 3 8 2 7 -3 -5 -18 163 -294 175
-286 5 3 7 1 4 -5 -4 -5 5 -34 20 -64 15 -29 41 -86 58 -125 17 -40 35 -70 40
-65 4 4 5 2 1 -5 -3 -6 2 -29 13 -50 28 -55 119 -313 146 -413 13 -47 32 -119
44 -160 79 -280 116 -680 92 -1004 -7 -88 -26 -241 -43 -340 -18 -100 -32
-196 -32 -214 0 -18 -3 -27 -6 -21 -4 6 -11 -6 -14 -28 -4 -21 -25 -100 -47
-175 -22 -76 -37 -143 -33 -149 4 -8 3 -9 -4 -5 -7 4 -12 1 -12 -6 0 -42 -152
-403 -244 -580 -35 -67 -54 -113 -50 -125 4 -13 3 -14 -4 -5 -7 10 -17 1 -41
-38 -18 -29 -30 -58 -27 -66 3 -7 0 -11 -7 -9 -7 2 -37 -35 -67 -83 -46 -74
-102 -154 -120 -172 -35 -35 -69 -92 -64 -107 4 -13 3 -14 -3 -5 -12 16 -138
-122 -127 -139 4 -7 3 -9 -2 -6 -13 8 -196 -177 -186 -188 4 -5 1 -5 -6 -1 -7
4 -19 3 -26 -3 -14 -12 -53 -3 -58 14 -2 6 -9 9 -15 9 -7 -1 -11 2 -8 6 6 10
-55 56 -69 52 -6 -2 -8 0 -4 3 10 11 -64 76 -80 70 -7 -3 -11 -1 -8 4 3 5 -12
20 -34 35 -22 14 -40 23 -40 19 0 -5 -4 -3 -8 2 -15 23 -72 56 -83 49 -7 -4
-9 -3 -5 4 4 6 -17 21 -51 37 -32 15 -69 33 -83 40 -42 22 -124 53 -156 58
-16 3 -49 13 -74 22 -63 23 -237 63 -306 71 -123 14 -142 15 -247 21 -96 5
-110 3 -129 -13 -20 -19 -92 -123 -93 -136 0 -3 -4 -10 -9 -15 -6 -5 -6 -2 -1
7 5 8 -14 -7 -41 -34 -27 -27 -75 -71 -106 -97 -31 -26 -54 -51 -50 -56 4 -4
3 -5 -2 -1 -8 7 -72 -25 -86 -42 -6 -8 -152 -64 -208 -81 -23 -7 -38 -15 -33
-19 6 -3 -6 -6 -27 -6 -20 0 -71 -6 -112 -13 -95 -17 -260 -9 -356 17 -109 29
-220 82 -319 151 -112 78 -305 266 -305 298 0 19 -7 22 -57 29 -156 19 -561
-40 -803 -118 -145 -46 -350 -163 -505 -287 -38 -31 -75 -55 -81 -53 -7 1 -33
-21 -59 -50 l-47 -52 -151 155 c-84 85 -192 203 -241 262 -139 167 -376 520
-448 667 -140 286 -222 498 -263 680 -8 36 -26 108 -40 160 -82 305 -109 715
-75 1105 11 115 16 148 51 330 47 244 157 621 208 712 6 10 38 76 71 147 72
152 152 289 275 468 148 216 448 549 629 699 16 13 46 38 65 54 59 50 123 99
175 135 27 18 57 41 67 51 49 49 305 208 459 285 401 200 874 325 1325 348
116 6 512 -3 635 -14z m1185 -278 c-3 -3 -11 0 -18 7 -9 10 -8 11 6 5 10 -3
15 -9 12 -12z m160 -110 c-3 -3 -11 0 -18 7 -9 10 -8 11 6 5 10 -3 15 -9 12
-12z m250 -150 c-3 -3 -11 0 -18 7 -9 10 -8 11 6 5 10 -3 15 -9 12 -12z m321
-243 c19 -22 19 -22 -3 -8 -13 8 -23 17 -23 21 0 12 6 9 26 -13z m89 -57 c-3
-3 -11 0 -18 7 -9 10 -8 11 6 5 10 -3 15 -9 12 -12z m72 -77 c0 -8 -4 -12 -9
-9 -5 3 -6 10 -3 15 9 13 12 11 12 -6z m234 -252 c13 -16 12 -17 -3 -4 -10 7
-18 15 -18 17 0 8 8 3 21 -13z m93 -62 c4 -5 -3 -7 -14 -4 -23 6 -26 13 -6 13
8 0 17 -4 20 -9z m-9 -23 c5 4 5 1 1 -6 -6 -10 -11 -10 -22 -1 -8 6 -14 14
-14 16 0 3 6 0 13 -6 8 -6 18 -7 22 -3z m352 -70 c-3 -7 -5 -2 -5 12 0 14 2
19 5 13 2 -7 2 -19 0 -25z m-267 -51 c-8 -9 -9 -7 -4 7 5 13 4 17 -4 12 -13
-8 -17 6 -5 18 4 3 11 -1 16 -10 6 -10 5 -20 -3 -27z m48 -62 c-3 -3 -9 2 -12
12 -6 14 -5 15 5 6 7 -7 10 -15 7 -18z m35 -40 c-3 -9 -8 -14 -10 -11 -3 3 -2
9 2 15 9 16 15 13 8 -4z m70 -83 c-5 -11 -7 -11 -14 0 -7 11 -9 10 -9 -1 0 -8
-3 -12 -6 -8 -9 9 3 24 20 24 8 0 12 -6 9 -15z m67 -82 c0 -5 -2 -10 -4 -10
-3 0 -8 5 -11 10 -3 6 -1 10 4 10 6 0 11 -4 11 -10z m20 -50 c0 -11 -2 -20 -4
-20 -2 0 -6 9 -9 20 -3 11 -1 20 4 20 5 0 9 -9 9 -20z m40 -121 c0 -6 -4 -7
-10 -4 -5 3 -10 11 -10 16 0 6 5 7 10 4 6 -3 10 -11 10 -16z m107 -161 c-3 -8
-6 -5 -6 6 -1 11 2 17 5 13 3 -3 4 -12 1 -19z m21 -63 c-3 -3 -9 2 -12 12 -6
14 -5 15 5 6 7 -7 10 -15 7 -18z m-20 -10 c-3 -3 -9 2 -12 12 -6 14 -5 15 5 6
7 -7 10 -15 7 -18z m312 -46 c0 -6 -4 -7 -10 -4 -5 3 -10 11 -10 16 0 6 5 7
10 4 6 -3 10 -11 10 -16z m-23 -851 c-3 -8 -6 -5 -6 6 -1 11 2 17 5 13 3 -3 4
-12 1 -19z m43 -44 c0 -8 -19 -13 -24 -6 -3 5 1 9 9 9 8 0 15 -2 15 -3z m9
-178 c2 -45 -6 -27 -12 29 -4 34 -3 42 3 25 4 -14 8 -38 9 -54z m-5 -62 c3 -8
2 -12 -4 -9 -6 3 -10 10 -10 16 0 14 7 11 14 -7z m253 -191 c-3 -10 -5 -4 -5
12 0 17 2 24 5 18 2 -7 2 -21 0 -30z m-354 -938 c-3 -9 -8 -14 -10 -11 -3 3
-2 9 2 15 9 16 15 13 8 -4z m14 -37 c-3 -8 -6 -5 -6 6 -1 11 2 17 5 13 3 -3 4
-12 1 -19z m-243 -634 c3 -8 2 -12 -4 -9 -6 3 -10 10 -10 16 0 14 7 11 14 -7z
m-243 -527 c-10 -9 -11 -8 -5 6 3 10 9 15 12 12 3 -3 0 -11 -7 -18z m-1056
-357 c3 -5 1 -10 -4 -10 -6 0 -11 5 -11 10 0 6 2 10 4 10 3 0 8 -4 11 -10z
m-1204 -13 c-6 -8 -7 -18 -3 -22 4 -5 1 -5 -6 -1 -10 6 -10 11 -1 22 6 8 14
14 16 14 3 0 0 -6 -6 -13z m39 9 c0 -2 -8 -10 -17 -17 -16 -13 -17 -12 -4 4
13 16 21 21 21 13z m527 -36 c65 -11 181 -36 258 -57 77 -20 154 -36 170 -36
17 0 24 -2 16 -5 -8 -2 22 -22 65 -42 43 -21 82 -36 87 -33 4 2 6 -1 5 -9 -2
-7 5 -12 14 -12 10 1 16 -3 15 -8 -1 -6 4 -13 12 -16 9 -3 11 0 6 9 -5 8 -4
11 1 6 5 -5 9 -12 9 -17 0 -17 95 -79 112 -74 13 4 14 3 5 -3 -16 -12 31 -59
49 -48 8 5 10 4 5 -3 -4 -6 2 -20 13 -31 23 -23 19 -47 -9 -56 -10 -3 -24 -13
-32 -22 -12 -15 -11 -15 12 -4 24 11 24 11 5 -4 -11 -8 -25 -13 -32 -11 -7 3
-13 1 -13 -4 0 -6 -7 -10 -15 -10 -9 0 -18 -7 -21 -15 -3 -8 -28 -28 -55 -46
-27 -17 -46 -36 -42 -42 3 -6 1 -7 -6 -3 -6 4 -18 2 -27 -4 -8 -7 -33 -23 -57
-36 -23 -12 -41 -28 -39 -34 1 -6 -2 -9 -7 -6 -5 4 -36 -10 -68 -29 -32 -19
-61 -35 -65 -35 -16 0 -97 -58 -91 -64 4 -4 1 -4 -8 -1 -8 3 -32 -6 -53 -20
-20 -14 -35 -21 -31 -15 3 6 0 7 -9 4 -9 -3 -13 -11 -9 -17 4 -6 0 -8 -9 -5
-8 4 -37 -4 -64 -17 -68 -32 -291 -111 -377 -135 -169 -45 -237 -61 -321 -75
-378 -66 -643 -83 -946 -61 -293 21 -623 81 -835 150 -207 68 -553 222 -585
261 -7 8 -20 15 -30 15 -11 0 -17 7 -16 17 0 10 -11 23 -26 31 -21 10 -28 20
-28 42 0 20 -6 31 -20 35 -26 8 -26 46 0 65 18 13 20 26 20 146 0 116 -2 133
-17 136 -15 3 -15 5 -2 18 22 22 30 60 13 60 -8 0 -14 -8 -15 -17 0 -14 -2
-15 -6 -3 -3 8 -11 18 -17 22 -6 4 3 10 22 14 17 4 32 10 32 14 0 9 175 64
255 80 33 6 76 16 96 21 20 5 52 7 70 4 25 -4 29 -3 14 3 -18 8 -17 10 10 16
64 13 242 36 291 36 59 0 80 -16 68 -52 -6 -21 -6 -22 11 -8 17 14 18 13 12
-8 -4 -18 -2 -22 9 -18 10 4 14 0 12 -11 -2 -10 2 -18 8 -18 6 0 50 -39 98
-87 47 -48 103 -97 124 -108 20 -11 51 -29 69 -40 17 -10 67 -33 110 -51 43
-17 97 -40 120 -50 23 -10 64 -24 90 -31 64 -16 425 -16 528 1 91 14 225 49
240 62 5 5 16 9 25 9 55 0 355 181 345 208 -3 7 -1 11 4 7 11 -6 111 102 131
142 32 63 38 66 122 60 42 -4 130 -15 195 -27z m1650 -32 c-3 -8 -6 -5 -6 6
-1 11 2 17 5 13 3 -3 4 -12 1 -19z m-1240 -44 c-3 -3 -12 -4 -19 -1 -8 3 -5 6
6 6 11 1 17 -2 13 -5z m103 -44 c8 -5 11 -10 5 -10 -5 0 -17 5 -25 10 -8 5
-10 10 -5 10 6 0 17 -5 25 -10z m-3654 -76 c-11 -7 -22 -12 -25 -9 -2 3 4 12
15 19 10 8 21 12 24 9 3 -2 -4 -11 -14 -19z m-31 -25 c11 -16 1 -19 -13 -3 -7
8 -8 14 -3 14 5 0 13 -5 16 -11z m-55 -59 c0 -14 -25 -18 -37 -5 -9 10 -6 13
13 13 13 0 24 -4 24 -8z m60 -40 c0 -5 -4 -10 -10 -10 -5 0 -10 5 -10 10 0 6
5 10 10 10 6 0 10 -4 10 -10z m0 -185 c0 -8 -9 -15 -20 -15 -11 0 -20 7 -20
15 0 8 9 15 20 15 11 0 20 -7 20 -15z m31 -78 c-10 -9 -11 -8 -5 6 3 10 9 15
12 12 3 -3 0 -11 -7 -18z m34 -27 c3 -5 -1 -10 -9 -10 -8 0 -18 5 -21 10 -3 6
1 10 9 10 8 0 18 -4 21 -10z m-30 -30 c8 -13 -5 -13 -25 0 -13 8 -13 10 2 10
9 0 20 -4 23 -10z"/>
<path d="M3495 7110 c-77 -4 -153 -11 -170 -14 -232 -55 -420 -106 -505 -139
-117 -45 -236 -105 -272 -137 -13 -12 -60 -48 -104 -80 -221 -158 -386 -391
-456 -641 l-31 -114 -4 -505 -5 -506 -51 -28 c-77 -43 -225 -198 -264 -276
-72 -145 -91 -256 -70 -403 27 -181 102 -292 274 -407 68 -45 206 -110 235
-110 7 0 26 16 41 35 35 45 119 100 175 116 l42 12 0 467 0 467 25 11 c14 7
31 17 38 22 7 6 40 27 74 48 225 134 423 404 487 662 l22 93 48 -72 c152 -229
397 -409 686 -505 311 -103 617 -110 965 -20 151 38 353 125 550 236 33 18 71
38 85 44 l25 11 0 -76 c0 -82 29 -199 52 -208 7 -3 10 -9 7 -14 -7 -13 15 -40
27 -33 5 3 7 -1 4 -8 -5 -13 44 -70 123 -141 l42 -39 0 -206 c0 -114 2 -279 4
-367 3 -88 5 -208 5 -267 l1 -108 30 0 c43 0 133 -36 160 -65 13 -13 27 -22
33 -18 6 4 7 1 3 -6 -9 -14 22 -53 35 -45 5 3 6 -2 3 -10 -18 -47 250 80 327
155 76 74 144 192 163 282 2 7 7 21 12 32 5 11 9 79 8 150 0 113 -4 139 -26
203 -29 82 -54 125 -68 117 -5 -3 -12 0 -16 6 -4 8 -3 9 4 5 19 -12 14 5 -14
41 -14 18 -29 31 -34 28 -4 -2 -10 4 -13 15 -3 11 -16 24 -29 29 -12 4 -22 11
-20 15 2 4 -10 20 -25 36 -19 21 -34 28 -48 24 -13 -3 -16 -2 -7 4 10 6 8 13
-8 27 -11 10 -20 14 -20 10 0 -5 -7 0 -15 11 -11 15 -15 62 -15 234 -2 402
-17 801 -34 867 -18 72 -63 189 -84 218 -13 19 -14 18 -7 -10 5 -23 4 -27 -6
-18 -6 6 -18 9 -25 6 -10 -3 -14 3 -14 19 0 14 -3 28 -7 32 -5 4 -8 19 -8 32
l-1 25 18 -23 c10 -13 15 -33 12 -48 -2 -14 -1 -18 2 -10 4 8 10 17 14 20 20
14 -161 267 -182 254 -4 -3 -7 0 -6 8 2 7 -3 12 -10 10 -8 -1 -11 1 -8 6 3 5
-8 22 -24 37 -23 22 -33 26 -42 17 -13 -13 12 -59 38 -69 22 -8 17 -18 -10
-19 -17 -1 -23 2 -19 12 3 8 0 14 -5 14 -6 0 -12 -8 -14 -17 -3 -10 -4 2 -4
27 1 25 5 51 10 59 6 9 4 18 -6 25 -8 6 -35 28 -61 49 -34 29 -50 36 -62 30
-15 -9 -15 -11 0 -23 13 -11 18 -11 25 -1 5 8 10 9 14 3 3 -6 3 -12 -1 -15 -5
-2 -3 -2 4 -1 7 2 15 -1 18 -6 4 -6 -1 -10 -9 -10 -9 0 -16 -5 -16 -11 0 -6 9
-9 20 -6 11 3 20 2 20 -3 0 -11 -35 -19 -48 -11 -5 3 -11 15 -14 26 -2 13 -11
20 -25 20 -34 0 -36 11 -8 34 l27 20 -47 28 c-26 15 -54 34 -62 42 -51 49
-274 147 -309 135 -14 -4 -15 -3 -6 4 11 7 10 10 -5 14 -10 3 -58 18 -108 32
-326 97 -334 98 -860 101 -247 1 -513 -1 -590 -5z m1461 -137 c-2 -9 -9 -19
-17 -21 -11 -3 -11 -1 1 7 12 9 10 11 -10 12 l-25 1 25 8 c14 4 26 8 27 9 1 1
0 -7 -1 -16z m81 -19 c-3 -3 -12 -4 -19 -1 -8 3 -5 6 6 6 11 1 17 -2 13 -5z
m173 -44 c18 -12 2 -12 -25 0 -13 6 -15 9 -5 9 8 0 22 -4 30 -9z m-20 -16 c0
-2 -11 -4 -25 -4 -14 0 -25 4 -25 9 0 4 11 6 25 3 14 -2 25 -6 25 -8z m-50
-14 c8 -5 11 -10 5 -10 -5 0 -17 5 -25 10 -8 5 -10 10 -5 10 6 0 17 -5 25 -10z
m130 6 c0 -2 -7 -7 -16 -10 -8 -3 -12 -2 -9 4 6 10 25 14 25 6z m36 -78 c20
-9 27 -9 33 1 7 10 14 10 37 -3 16 -8 25 -15 21 -16 -5 0 -17 5 -28 10 -11 7
-19 7 -19 1 0 -5 5 -11 10 -13 6 -1 -12 -3 -39 -3 -27 0 -45 3 -39 6 7 4 6 9
-1 13 -6 4 -10 19 -10 34 2 24 2 25 6 4 3 -13 16 -28 29 -34z m14 21 c0 -5 -4
-9 -10 -9 -5 0 -10 7 -10 16 0 8 5 12 10 9 6 -3 10 -10 10 -16z m-110 -39 c0
-5 -4 -10 -10 -10 -5 0 -10 5 -10 10 0 6 5 10 10 10 6 0 10 -4 10 -10z m355
-157 c18 -14 18 -15 2 -9 -10 3 -23 6 -28 6 -5 0 -9 5 -9 10 0 14 12 12 35 -7z
m-115 -3 c0 -5 -4 -10 -10 -10 -5 0 -10 5 -10 10 0 6 5 10 10 10 6 0 10 -4 10
-10z m198 -30 c7 -11 8 -20 2 -20 -5 0 -14 9 -20 20 -6 11 -7 20 -3 20 5 0 14
-9 21 -20z m71 -82 c19 -30 9 -29 -21 2 -20 21 -23 27 -10 23 10 -2 24 -13 31
-25z m-25 -23 c3 -8 -1 -21 -9 -29 -12 -11 -15 -42 -15 -130 0 -96 -3 -116
-15 -116 -12 0 -15 20 -15 119 0 112 1 119 21 124 16 4 19 11 14 26 -7 24 10
29 19 6z m86 -37 c0 -7 -4 -7 -13 1 -8 6 -16 9 -19 6 -2 -3 -5 2 -5 9 0 11 5
13 19 5 10 -5 18 -15 18 -21z m-55 12 c3 -5 1 -10 -4 -10 -6 0 -11 5 -11 10 0
6 2 10 4 10 3 0 8 -4 11 -10z m67 -70 c12 0 10 14 -4 28 -7 7 -8 12 -2 12 5 0
18 -15 29 -32 18 -31 18 -32 0 -18 -16 14 -17 13 -11 -8 5 -13 3 -22 -3 -22
-6 0 -11 7 -11 16 0 10 -6 14 -15 11 -8 -4 -17 -1 -21 5 -5 7 -2 8 6 3 10 -6
12 -4 7 8 -17 42 -17 50 -1 25 10 -16 22 -28 26 -28z m-22 -90 c0 -5 -4 -10
-10 -10 -5 0 -10 5 -10 10 0 6 5 10 10 10 6 0 10 -4 10 -10z m73 -58 c4 -21 3
-31 -3 -27 -6 3 -10 20 -10 37 0 38 5 34 13 -10z m72 -66 c-3 -37 -2 -39 10
-22 13 17 14 16 10 -10 -2 -16 -4 -36 -5 -44 -1 -9 -5 -6 -10 8 -5 12 -16 22
-25 22 -11 0 -15 11 -15 39 0 23 -5 41 -12 44 -7 2 1 4 19 4 31 0 31 -1 28
-41z m-48 -33 c-3 -10 -5 -2 -5 17 0 19 2 27 5 18 2 -10 2 -26 0 -35z m93 -40
c0 -5 -5 -15 -10 -23 -8 -12 -10 -11 -10 8 0 12 5 22 10 22 6 0 10 -3 10 -7z
m-27 -54 c5 -4 6 -13 2 -20 -6 -9 -10 -8 -16 7 -4 10 -8 26 -8 34 1 13 1 13 6
0 3 -8 10 -18 16 -21z m33 -16 c-1 -27 -6 -57 -10 -68 -6 -16 -6 -17 3 -5 9
13 11 12 11 -3 0 -10 7 -25 15 -33 13 -13 15 -56 15 -262 0 -136 2 -298 3
-360 2 -97 0 -111 -13 -106 -8 4 -28 9 -45 12 -16 2 -33 11 -38 18 -4 7 -23
16 -42 20 -19 3 -35 9 -35 13 0 11 -57 41 -78 41 -11 0 -25 7 -32 15 -10 13
-9 15 9 15 12 0 21 6 21 15 0 11 11 15 40 15 29 0 40 4 40 15 0 11 11 15 40
15 22 0 40 5 40 10 0 6 -7 10 -15 10 -13 0 -15 33 -15 240 0 207 2 240 15 240
8 0 15 7 15 15 0 8 6 15 13 15 9 0 9 2 -1 9 -10 6 -10 10 2 21 9 7 13 16 10
21 -2 5 2 19 11 33 9 13 15 30 14 38 -2 19 0 38 5 38 3 0 4 -21 2 -47z m-555
-916 c-10 -9 -11 -8 -5 6 3 10 9 15 12 12 3 -3 0 -11 -7 -18z m94 -120 c3 -4
2 -5 -1 -2 -4 2 -15 0 -25 -5 -16 -9 -35 1 -24 12 7 7 44 3 50 -5z m508 -45
c15 -16 15 -18 -1 -18 -10 0 -18 8 -18 18 0 10 1 18 2 18 0 0 8 -8 17 -18z
m-453 -38 c0 -2 -7 -4 -15 -4 -8 0 -15 4 -15 10 0 5 7 7 15 4 8 -4 15 -8 15
-10z m26 -28 c2 -23 1 -23 -15 -8 -12 13 -13 18 -4 20 7 2 10 9 7 15 -4 7 -3
9 1 5 5 -5 9 -19 11 -32z m374 -146 c0 -5 -4 -10 -10 -10 -5 0 -10 5 -10 10 0
6 5 10 10 10 6 0 10 -4 10 -10z m-70 -25 c7 -8 16 -15 21 -15 5 0 18 -8 28
-17 11 -10 31 -26 45 -36 45 -31 103 -119 115 -175 14 -67 14 -165 0 -217 -14
-51 -85 -160 -115 -176 -13 -6 -21 -16 -18 -21 3 -4 -2 -8 -12 -8 -9 0 -32 -9
-50 -21 -20 -12 -34 -16 -34 -9 0 6 -3 9 -7 7 -5 -3 -4 77 0 176 4 100 6 260
5 355 -2 94 0 172 3 172 4 0 12 -7 19 -15z m357 -27 c-3 -8 -6 -5 -6 6 -1 11
2 17 5 13 3 -3 4 -12 1 -19z m-4187 -323 c0 -217 -4 -335 -10 -335 -5 0 -10 5
-10 10 0 6 -7 10 -15 10 -8 0 -46 30 -83 68 -59 58 -71 75 -85 128 -21 75 -22
142 -2 218 19 72 55 134 96 166 50 39 93 69 102 69 4 1 7 -150 7 -334z m3920
320 c9 6 11 4 5 -5 -6 -10 -4 -12 11 -6 14 5 16 4 8 -4 -13 -13 -67 7 -57 23
3 5 9 4 13 -3 4 -7 13 -9 20 -5z m300 -9 c0 -3 -4 -8 -10 -11 -5 -3 -10 -1
-10 4 0 6 5 11 10 11 6 0 10 -2 10 -4z m-216 -30 c-3 -9 -10 -16 -15 -16 -5 0
-4 9 3 20 14 22 21 20 12 -4z m251 -37 c-5 -15 -4 -19 5 -14 9 6 9 3 1 -14
-15 -27 -31 -27 -31 -1 0 11 -6 20 -12 20 -7 1 -2 7 12 15 33 19 32 19 25 -6z
m18 -54 c-3 -9 -8 -14 -10 -11 -3 3 -2 9 2 15 9 16 15 13 8 -4z m-193 -51 c0
-4 -9 3 -20 16 -11 13 -20 27 -20 33 0 5 9 -2 20 -16 11 -14 20 -29 20 -33z
m193 13 c-3 -5 -1 -12 5 -16 22 -13 20 -141 -3 -141 -8 0 -15 -5 -15 -12 0 -6
-3 -8 -7 -5 -3 4 2 16 11 26 14 15 16 29 11 65 -10 64 -26 69 -18 6 5 -44 4
-50 -11 -44 -19 7 -21 20 -3 28 10 5 10 7 0 12 -7 3 -13 23 -13 44 0 36 8 47
37 47 7 0 9 -5 6 -10z m-43 -176 c0 -24 -34 -22 -38 2 -2 12 3 17 17 17 14 0
21 -6 21 -19z m76 -30 c-2 -27 -10 -60 -17 -72 -11 -22 -14 -37 -18 -81 0 -10
-4 -18 -8 -18 -5 0 -8 38 -8 85 0 77 1 82 12 53 10 -31 11 -29 6 22 -3 41 -2
51 6 40 9 -13 11 -13 11 3 0 9 5 17 10 17 6 0 9 -19 6 -49z m-226 -101 c0 -13
-1 -13 -10 0 -5 8 -10 22 -10 30 0 13 1 13 10 0 5 -8 10 -22 10 -30z m-76 -98
c2 -4 -4 -8 -14 -8 -10 0 -16 4 -14 8 3 4 9 8 14 8 5 0 11 -4 14 -8z m205 -82
c-17 -33 -34 -58 -37 -55 -3 2 0 10 6 18 7 8 7 18 2 27 -5 9 -5 19 2 28 9 11
13 11 19 0 7 -10 9 -8 9 5 0 21 24 61 28 47 2 -5 -11 -37 -29 -70z m-239 13
c0 -1 -11 2 -25 9 -13 6 -22 15 -19 19 4 7 44 -19 44 -28z m-169 -66 c-10 -9
-11 -8 -5 6 3 10 9 15 12 12 3 -3 0 -11 -7 -18z m334 -39 c2 -2 -3 -8 -9 -14
-10 -9 -15 -7 -24 7 -10 15 -8 17 10 14 11 -3 22 -6 23 -7z m-468 -34 c-3 -3
-12 -4 -19 -1 -8 3 -5 6 6 6 11 1 17 -2 13 -5z m68 -33 c3 -5 0 -13 -6 -17 -7
-4 -9 -3 -5 4 3 5 0 13 -6 15 -9 4 -10 6 -1 6 6 1 14 -3 18 -8z m242 -17 c-3
-3 -12 -4 -19 -1 -8 3 -5 6 6 6 11 1 17 -2 13 -5z m-2 -24 c-3 -5 -12 -10 -18
-10 -7 0 -6 4 3 10 19 12 23 12 15 0z m-164 -48 c-7 -2 -18 1 -23 6 -8 8 -4 9
13 5 13 -4 18 -8 10 -11z"/>
<path d="M5910 5860 c0 -29 4 -40 15 -40 11 0 15 11 15 40 0 29 -4 40 -15 40
-11 0 -15 -11 -15 -40z"/>
<path d="M5910 5620 c0 -73 4 -120 10 -120 6 0 10 47 10 120 0 73 -4 120 -10
120 -6 0 -10 -47 -10 -120z"/>
<path d="M5800 5320 c0 -5 7 -10 15 -10 8 0 15 5 15 10 0 6 -7 10 -15 10 -8 0
-15 -4 -15 -10z"/>
<path d="M5923 5253 c9 -2 23 -2 30 0 6 3 -1 5 -18 5 -16 0 -22 -2 -12 -5z"/>
<path d="M6245 4040 c3 -5 8 -10 11 -10 2 0 4 5 4 10 0 6 -5 10 -11 10 -5 0
-7 -4 -4 -10z"/>
<path d="M5840 6321 c0 -5 5 -13 10 -16 6 -3 10 -2 10 4 0 5 -4 13 -10 16 -5
3 -10 2 -10 -4z"/>
<path d="M2509 3467 c-20 -18 -60 -41 -88 -51 -37 -13 -51 -23 -51 -37 0 -42
115 -225 227 -360 35 -43 63 -81 63 -86 0 -18 199 -201 305 -280 269 -201 511
-290 885 -323 297 -27 645 42 931 185 116 58 195 106 239 147 14 13 52 45 85
72 110 91 239 234 240 266 1 8 7 14 13 12 17 -3 63 50 57 66 -3 7 -1 11 4 8
10 -7 55 57 110 156 32 58 42 88 31 88 -4 0 -11 -8 -13 -17 -2 -10 -4 -4 -4
12 0 17 -2 37 -5 45 -2 8 -3 11 0 7 2 -4 10 -3 17 3 9 8 11 4 7 -15 -2 -15 0
-25 7 -25 6 0 11 6 11 14 0 8 2 21 5 28 6 16 -79 43 -97 32 -7 -4 -8 -2 -4 4
4 7 3 12 -3 12 -5 0 -25 16 -45 35 l-36 35 -20 -33 c-11 -17 -18 -38 -15 -45
3 -7 1 -10 -4 -7 -11 6 -23 -26 -18 -46 2 -8 2 -11 0 -6 -3 4 -9 7 -14 7 -6 0
-7 -4 -4 -10 3 -5 8 -18 10 -27 2 -10 6 -27 9 -38 5 -16 4 -15 -5 3 -7 12 -16
22 -21 22 -5 0 -4 -9 2 -20 6 -11 7 -20 2 -20 -17 0 -21 40 -5 49 9 4 12 11 7
14 -5 3 -26 -19 -47 -50 -21 -30 -32 -52 -25 -48 7 4 4 -1 -6 -9 -11 -9 -16
-16 -10 -16 5 0 1 -5 -9 -11 -9 -6 -14 -15 -11 -21 4 -6 3 -8 -3 -5 -6 4 -28
-15 -49 -41 -22 -26 -50 -57 -64 -68 -20 -18 -22 -24 -12 -37 10 -12 10 -17 1
-23 -7 -4 -9 -3 -5 4 3 6 1 14 -5 17 -13 9 -70 -44 -62 -58 3 -6 1 -7 -4 -4
-16 10 -34 -18 -27 -39 5 -16 4 -17 -5 -4 -10 13 -13 12 -24 -5 -6 -11 -12
-25 -12 -31 0 -6 -7 -19 -15 -30 -14 -16 -13 -17 5 -10 16 6 17 5 8 -5 -10
-10 -17 -9 -33 6 -19 17 -33 15 -36 -6 -1 -5 -3 -11 -4 -14 -1 -3 -3 -11 -4
-17 -1 -12 -18 -15 -41 -7 -12 4 -157 -75 -150 -82 2 -3 -4 -5 -13 -6 -9 0
-56 -17 -104 -37 -190 -78 -380 -116 -582 -116 -277 0 -504 64 -764 216 -120
70 -159 101 -293 234 -119 117 -202 223 -293 373 -33 55 -65 102 -71 103 -5 2
-26 -11 -46 -29z m3023 -147 c4 -29 -19 -96 -30 -86 -3 3 1 12 7 20 7 8 10 31
7 55 -5 47 9 57 16 11z m-246 -48 c-18 -16 -18 -16 -6 6 6 13 14 21 18 18 3
-4 -2 -14 -12 -24z m204 -52 c0 -10 -4 -22 -10 -25 -6 -4 -10 7 -10 25 0 18 4
29 10 25 6 -3 10 -15 10 -25z m-30 1 c0 -6 -4 -13 -10 -16 -5 -3 -10 1 -10 9
0 9 5 16 10 16 6 0 10 -4 10 -9z m-210 -41 c0 -5 -2 -10 -4 -10 -3 0 -8 5 -11
10 -3 6 -1 10 4 10 6 0 11 -4 11 -10z m212 -22 c-9 -9 -15 -9 -24 1 -11 10
-10 11 5 6 10 -5 17 -2 17 6 0 7 3 9 7 6 4 -4 1 -13 -5 -19z m-288 -44 c3 -8
2 -12 -4 -9 -6 3 -10 10 -10 16 0 14 7 11 14 -7z m210 -32 c3 -5 -1 -9 -9 -9
-8 0 -12 4 -9 9 3 4 7 8 9 8 2 0 6 -4 9 -8z m-11 -37 c-3 -9 -8 -14 -10 -11
-3 3 -2 9 2 15 9 16 15 13 8 -4z m-64 -72 c-13 -16 -25 -30 -26 -32 -2 -2 -3
1 -3 7 0 11 39 52 49 52 2 0 -6 -12 -20 -27z m-290 -47 c-3 -3 -11 5 -18 17
-13 21 -12 21 5 5 10 -10 16 -20 13 -22z m185 -76 c-6 -6 -10 -3 -10 10 0 13
4 16 10 10 7 -7 7 -13 0 -20z m-46 -46 c-17 -13 -32 -24 -33 -24 -1 0 -1 11
-1 25 0 17 3 22 10 15 12 -12 27 -13 25 -2 -3 17 2 21 16 15 12 -4 8 -11 -17
-29z m-191 -149 c0 -8 -4 -12 -9 -9 -5 3 -6 10 -3 15 9 13 12 11 12 -6z"/>
<path d="M4919 2898 c0 -2 -2 -11 -4 -21 -3 -15 -1 -16 11 -6 7 6 11 15 8 20
-5 9 -13 12 -15 7z"/>
<path d="M4835 2831 c-6 -11 13 -26 22 -17 4 3 0 6 -8 6 -11 0 -11 2 1 10 9 6
10 10 3 10 -6 0 -14 -4 -18 -9z"/>
<path d="M2558 1423 c6 -2 18 -2 25 0 6 3 1 5 -13 5 -14 0 -19 -2 -12 -5z"/>
<path d="M2211 1356 l-23 -13 32 -7 c18 -3 35 -4 38 -1 3 3 -2 5 -11 5 -9 0
-17 5 -17 10 0 6 17 8 43 4 31 -4 38 -3 27 5 -20 14 -60 13 -89 -3z"/>
<path d="M2300 1330 c-12 -8 -9 -10 13 -10 15 0 27 5 27 10 0 13 -20 13 -40 0z"/>
<path d="M2285 820 c4 -6 11 -8 16 -5 14 9 11 15 -7 15 -8 0 -12 -5 -9 -10z"/>
</g>
</svg>
