<?xml version="1.0" standalone="no"?>
<!DOCTYPE svg PUBLIC "-//W3C//DTD SVG 20010904//EN"
 "http://www.w3.org/TR/2001/REC-SVG-20010904/DTD/svg10.dtd">
<svg version="1.0" xmlns="http://www.w3.org/2000/svg"
 width="500.000000pt" height="500.000000pt" viewBox="0 0 500.000000 500.000000"
 preserveAspectRatio="xMidYMid meet">
<metadata>
Created by potrace 1.14, written by Peter Selinger 2001-2017
</metadata>
<g transform="translate(0.000000,500.000000) scale(0.100000,-0.100000)"
fill="#000000" stroke="none">
<path d="M762 4368 c-115 -17 -235 -102 -289 -205 -53 -100 -55 -118 -57 -379
l-1 -244 2085 2 2085 3 -1 231 c-2 260 -13 324 -75 418 -53 79 -155 149 -250
172 -43 10 -3427 12 -3497 2z m377 -228 c94 -47 136 -170 92 -265 -65 -141
-251 -168 -348 -51 -37 45 -51 89 -47 149 8 151 166 237 303 167z m611 8 c110
-48 157 -189 97 -290 -41 -69 -85 -97 -163 -105 -87 -9 -160 30 -200 109 -89
175 88 365 266 286z"/>
<path d="M450 3330 l-34 -5 0 -1170 c1 -1315 -4 -1226 77 -1346 52 -79 122
-133 207 -161 l65 -21 1720 -1 c1888 -1 1784 -4 1890 58 94 56 166 150 196
257 9 34 12 321 13 1217 l1 1172 -50 0 c-454 4 -4060 4 -4085 0z m1920 -1455
c0 -13 -752 -765 -765 -765 -6 0 -74 65 -152 143 l-142 143 234 234 c129 129
235 239 235 245 0 6 -105 116 -234 244 l-235 235 147 147 147 148 383 -382
c210 -210 382 -387 382 -392z m1378 -418 l2 -207 -520 0 -520 0 0 208 0 207
518 0 517 0 3 -208z"/>
</g>
</svg>
